<!DOCTYPE svg PUBLIC "-//W3C//DTD SVG 1.1//EN" "http://www.w3.org/Graphics/SVG/1.1/DTD/svg11.dtd">
<!-- Uploaded to: SVG Repo, www.svgrepo.com, Transformed by: SVG Repo Mixer Tools -->
<svg height="130px" width="130px" version="1.1" id="_x32_" xmlns="http://www.w3.org/2000/svg" xmlns:xlink="http://www.w3.org/1999/xlink" viewBox="0 0 512 512" xml:space="preserve" fill="#bababa" stroke="#bababa">
<g id="SVGRepo_bgCarrier" stroke-width="0"/>
<g id="SVGRepo_tracerCarrier" stroke-linecap="round" stroke-linejoin="round"/>
<g id="SVGRepo_iconCarrier"> <style type="text/css"> .st0{fill:#bababa;} </style> <g> <path class="st0" d="M57.653,512h396.693c-7.07-210.098-120.872-261.389-123.68-304.672c-2.803-43.274,22.467-66.848,33.646-109.41 l35.708,18.394l34.814-52.161c0,0-53.416-42.94-84.19-64.151c0,0-42.065,34.184-94.644,34.184C203.424,34.184,161.354,0,161.354,0 c-30.773,21.212-84.19,64.151-84.19,64.151l34.818,52.161l35.704-18.394c11.18,42.561,36.454,66.136,33.646,109.41 C178.525,250.611,64.723,301.902,57.653,512z"/> </g> </g>
</svg>